<svg xmlns:mydata="http://www.w3.org/2000/svg" mydata:contrastcolor="F2A900" mydata:template="Contrast" mydata:presentation="2.5" mydata:layouttype="undefined" mydata:specialfontid="undefined" mydata:id1="179" mydata:id2="146" mydata:companyname="BL" mydata:companytagline="Bodega Lucy" version="1.1" xmlns="http://www.w3.org/2000/svg" xmlns:xlink="http://www.w3.org/1999/xlink" style="height: 120px;" viewBox="0 0 550 470"><g fill="#101820" fill-rule="nonzero" stroke="none" stroke-width="1" stroke-linecap="butt" stroke-linejoin="miter" stroke-miterlimit="10" stroke-dasharray="" stroke-dashoffset="0" font-family="none" font-weight="none" font-size="none" text-anchor="none" style="mix-blend-mode: normal"><g data-paper-data="{&quot;isGlobalGroup&quot;:true,&quot;bounds&quot;:{&quot;x&quot;:202.60375346188926,&quot;y&quot;:159.3579747617959,&quot;width&quot;:144.7924930762215,&quot;height&quot;:151.2840504764082}}"><g data-paper-data="{&quot;isSecondaryText&quot;:true}" id="element-id-39752"><path d="M209.59193,307.28232c0,-1.34388 -0.56742,-2.195 -1.85157,-2.71762c0.85112,-0.47782 1.22442,-1.19456 1.22442,-2.2846c0,-1.89636 -1.09004,-2.86694 -3.7778,-2.86694h-2.58324v11.03475h2.73256c3.06106,0 4.25562,-0.98551 4.25562,-3.16558zM208.47203,307.34205c0,1.59772 -1.00044,2.10541 -3.25518,2.10541h-1.50813v-4.28549h1.31402c1.95609,0 3.44929,0.11946 3.44929,2.18007zM207.84489,302.29504c0,1.38868 -0.71674,1.8665 -2.79228,1.8665h-1.34388v-3.74793h1.32895c2.22487,0 2.80722,0.53755 2.80722,1.88143z" data-paper-data="{&quot;glyphName&quot;:&quot;B&quot;,&quot;glyphIndex&quot;:0,&quot;firstGlyphOfWord&quot;:true,&quot;word&quot;:1}" id="element-id-96703"></path><path d="M225.46963,304.938c0,-3.15065 -2.62803,-5.71896 -5.82348,-5.71896c-3.16558,0 -5.83841,2.58324 -5.83841,5.6443c0,3.21038 2.59817,5.77869 5.83841,5.77869c3.19545,0 5.82348,-2.58324 5.82348,-5.70403zM224.34973,304.95293c0,2.55337 -2.13528,4.67372 -4.70358,4.67372c-2.59817,0 -4.71851,-2.12034 -4.71851,-4.73345c0,-2.52351 2.16514,-4.65879 4.71851,-4.65879c2.5683,0 4.70358,2.13528 4.70358,4.71851z" data-paper-data="{&quot;glyphName&quot;:&quot;O&quot;,&quot;glyphIndex&quot;:1,&quot;word&quot;:1}" id="element-id-21428"></path><path d="M239.68987,304.96786c0,-2.07555 -0.86606,-3.71807 -2.50858,-4.68865c-1.04524,-0.62714 -2.20994,-0.86606 -4.21083,-0.86606h-2.59817v11.03475h2.97147c4.31535,0 6.3461,-2.29953 6.3461,-5.48005zM238.56997,304.92307c0,1.4484 -0.56742,2.71762 -1.58279,3.53888c-0.88099,0.7018 -2.01582,0.98551 -3.97191,0.98551h-1.538v-9.03386h1.538c1.67238,0 2.71762,0.20905 3.55382,0.71674c1.26922,0.76153 2.00089,2.15021 2.00089,3.79273z" data-paper-data="{&quot;glyphName&quot;:&quot;D&quot;,&quot;glyphIndex&quot;:2,&quot;word&quot;:1}" id="element-id-88801"></path><path d="M250.62508,310.44791v-1.00044h-4.92756v-4.07644h4.76331v-1.00044h-4.76331v-3.95698h4.92756v-1.00044h-6.03253v11.03475z" data-paper-data="{&quot;glyphName&quot;:&quot;E&quot;,&quot;glyphIndex&quot;:3,&quot;word&quot;:1}" id="element-id-57639"></path><path d="M266.9806,305.3561h-7.49587v1.00044h6.16692c-0.40316,1.74704 -2.2846,3.27011 -4.46467,3.27011c-2.70269,0 -4.83797,-2.06062 -4.83797,-4.68865c0,-2.6579 2.10541,-4.70358 4.82304,-4.70358c1.70225,0 3.13572,0.77646 3.89725,2.12034h1.23936c-0.73167,-1.88143 -2.82215,-3.13572 -5.2262,-3.13572c-3.28504,0 -5.85335,2.49364 -5.85335,5.68909c0,3.22531 2.62803,5.73389 6.00267,5.73389c3.24024,0 5.58457,-2.50858 5.74882,-5.28593z" data-paper-data="{&quot;glyphName&quot;:&quot;G&quot;,&quot;glyphIndex&quot;:4,&quot;word&quot;:1}" id="element-id-27622"></path><path d="M280.99179,310.44791l-4.74838,-11.03475h-1.23936l-4.73345,11.03475h1.1647l1.61266,-3.71807h5.13661l1.59772,3.71807zM277.75155,305.7294h-4.28549l2.16514,-5.06195z" data-paper-data="{&quot;glyphName&quot;:&quot;A&quot;,&quot;glyphIndex&quot;:5,&quot;lastGlyphOfWord&quot;:true,&quot;word&quot;:1}" id="element-id-76490"></path><path d="M298.32287,310.44791v-1.00044h-4.56919v-10.03431h-1.10497v11.03475z" data-paper-data="{&quot;glyphName&quot;:&quot;L&quot;,&quot;glyphIndex&quot;:6,&quot;firstGlyphOfWord&quot;:true,&quot;word&quot;:2}" id="element-id-99704"></path><path d="M309.79563,306.29681v-6.88365h-1.10497v6.88365c0,2.25473 -0.94072,3.32984 -2.64296,3.32984c-1.73211,0 -2.6579,-1.0751 -2.6579,-3.32984v-6.88365h-1.10497v6.88365c0,3.00133 1.52306,4.34521 3.74793,4.34521c2.2398,0 3.76286,-1.34388 3.76286,-4.34521z" data-paper-data="{&quot;glyphName&quot;:&quot;U&quot;,&quot;glyphIndex&quot;:7,&quot;word&quot;:2}" id="element-id-76020"></path><path d="M325.53894,307.5511h-1.22442c-1.1647,1.46334 -2.22487,2.07555 -3.83752,2.07555c-2.55337,0 -4.65879,-2.12034 -4.65879,-4.70358c0,-2.6579 2.01582,-4.68865 4.64385,-4.68865c1.55293,0 2.85201,0.56742 3.79273,2.04568h1.23936c-0.85112,-1.89636 -2.79228,-3.06106 -5.07688,-3.06106c-3.28504,0 -5.71896,2.44885 -5.71896,5.74882c0,3.22531 2.49364,5.67416 5.79362,5.67416c2.2398,0 3.94205,-1.04524 5.04702,-3.09092z" data-paper-data="{&quot;glyphName&quot;:&quot;C&quot;,&quot;glyphIndex&quot;:8,&quot;word&quot;:2}" id="element-id-97926"></path><path d="M338.10173,299.41316h-1.20949l-3.21038,6.18185l-3.13572,-6.18185h-1.22442l3.82259,7.34655v3.6882h1.10497v-3.6882z" data-paper-data="{&quot;glyphName&quot;:&quot;Y&quot;,&quot;glyphIndex&quot;:9,&quot;lastGlyphOfWord&quot;:true,&quot;word&quot;:2}" id="element-id-49488"></path></g><g data-paper-data="{&quot;isPrimaryText&quot;:true}" id="element-id-57639"><path d="M291.4378,159.35797h-11.19169v90.40787c0,9.26812 3.67227,17.66189 9.79273,23.78234c6.12046,6.12046 14.51422,9.79273 23.78234,9.79273c9.26812,0 17.66189,-3.67227 23.78234,-9.79273c6.12046,-6.12046 9.79273,-14.51422 9.79273,-23.78234v-0.87435h-11.19169v0.87435c0,6.12046 -2.44818,11.7163 -6.4702,15.73831c-4.19688,4.02201 -9.79273,6.4702 -15.91318,6.4702c-6.12046,0 -11.7163,-2.44818 -15.73831,-6.4702c-4.19688,-4.02201 -6.64507,-9.61786 -6.64507,-15.73831z" data-paper-data="{&quot;glyphName&quot;:&quot;L&quot;,&quot;glyphIndex&quot;:1,&quot;lastGlyphOfWord&quot;:true,&quot;word&quot;:1}" id="element-id-49404"></path><g data-paper-data="{&quot;fillRule&quot;:&quot;nonzero&quot;,&quot;fillRuleOriginal&quot;:&quot;nonzero&quot;,&quot;isIcon&quot;:true,&quot;iconStyle&quot;:&quot;icon-in-text&quot;,&quot;selectedEffects&quot;:{&quot;container&quot;:&quot;&quot;,&quot;transformation&quot;:&quot;&quot;,&quot;pattern&quot;:&quot;&quot;},&quot;bounds&quot;:{&quot;x&quot;:202.60375346188926,&quot;y&quot;:159.3579747617959,&quot;width&quot;:67.15014171650853,&quot;height&quot;:122.40911250405202},&quot;iconType&quot;:&quot;icon&quot;,&quot;rawIconId&quot;:&quot;13fe31e8-b1a9-4adb-ae0c-82882d81ac54&quot;,&quot;isDetailed&quot;:false,&quot;suitableAsStandaloneIcon&quot;:true}" id="element-id-10040"><path d="M202.60375,159.35797v122.40911h33.74994c9.26812,0 17.48702,-3.67227 23.60747,-9.79273c6.12046,-6.12046 9.79273,-14.33935 9.79273,-23.60747c0,-13.29013 -7.51942,-24.48182 -18.71111,-29.9028c7.51942,-6.12046 12.06604,-15.2137 12.06604,-25.70591c0,-9.09325 -3.4974,-17.13728 -9.44299,-23.25773c-5.94559,-6.12046 -13.98961,-9.9676 -23.08286,-10.14247zM213.62057,170.54967h16.08805c6.12046,0 11.54143,2.44818 15.73831,6.4702c4.02201,4.19688 6.4702,9.61786 6.4702,15.73831c0,5.77072 -2.27331,11.19169 -5.94559,15.2137c-3.67227,4.02201 -8.91838,6.4702 -14.68909,6.99481h-17.66189zM213.62057,226.15838h22.73312c6.12046,0 11.54143,2.44818 15.73831,6.4702c4.02201,4.19688 6.4702,9.61786 6.4702,15.73831c0,6.12046 -2.44818,11.7163 -6.4702,15.73831c-4.19688,4.02201 -9.61786,6.4702 -15.73831,6.4702h-22.73312z" data-paper-data="{&quot;glyphName&quot;:&quot;B&quot;,&quot;glyphIndex&quot;:0,&quot;firstGlyphOfWord&quot;:true,&quot;word&quot;:1}" id="element-id-6617"></path><path d="M241.20791,257.72868c1.50447,0.92583 3.2404,1.4659 5.13064,1.4659c5.36209,0 9.68263,-4.32054 9.68263,-9.68263c0,-6.86657 -6.55796,-10.99422 -12.653,-9.25829v-0.96441c0,0 0.30861,-6.75084 -6.71226,-6.75084c0,3.97335 0,7.9467 0,11.92005c-0.57864,0.54007 -1.11871,1.04156 -1.65878,1.58163c-1.38874,-3.62617 -4.89918,-6.21077 -9.02684,-6.21077c-1.04156,0 -2.00596,0.15431 -2.97037,0.46292v-1.00298c0,0 0.30861,-6.75084 -6.71226,-6.75084c0,8.91111 0,17.78364 0,26.65617c2.12169,0 3.54901,-0.61722 4.55199,-1.4659c1.50447,0.92583 3.2404,1.4659 5.13064,1.4659c4.39769,0 7.63809,-2.93179 10.68561,-6.09504v6.09504c2.12169,0 3.54901,-0.61722 4.55199,-1.4659zM246.33855,246.54158c1.6202,0 2.97037,1.31159 2.97037,2.97037c0,1.65878 -1.35017,3.00895 -2.97037,3.00895c-2.35315,0 -3.66474,-2.58461 -2.58461,-4.47484c-1.6202,0.54007 -3.12467,1.4659 -4.62915,2.50745c1.96739,-1.96739 4.24338,-3.97335 7.21375,-4.01193zM225.9703,252.5209c-3.93478,0 -3.93478,-5.97932 0,-5.97932c1.6202,0 2.97037,1.31159 2.97037,2.97037c0,0.34719 -0.07715,0.69437 -0.19288,1.00298c1.50447,-0.61722 2.93179,-1.77451 5.28494,-3.47186c-2.81606,2.81606 -5.32352,5.47782 -8.06243,5.47782z" data-paper-data="{&quot;isPathIcon&quot;:true}" id="element-id-55181"></path></g></g></g></g><g class="watermark-group" style="opacity:0.040000010281801224"><path class="watermark-path" d="M129.52,370.3a11.88,11.88,0,0,1,2.58,5.58,12,12,0,0,1,.11,3,11.81,11.81,0,0,1-.64,2.93,12.34,12.34,0,0,1-1.41,2.72,11.65,11.65,0,0,1-2.13,2.32,12,12,0,0,1-2.64,1.69,13,13,0,0,1-2.91.9,12.47,12.47,0,0,1-3,.12,12.17,12.17,0,0,1-2.93-.64,11.8,11.8,0,0,1-2.72-1.38,12.19,12.19,0,0,1-4-4.79,11.85,11.85,0,0,1-.89-2.92,12.14,12.14,0,0,1-.13-3,11.54,11.54,0,0,1,.64-2.92,11.67,11.67,0,0,1,3.5-5,11.44,11.44,0,0,1,2.67-1.69,11.64,11.64,0,0,1,2.92-.91,10.71,10.71,0,0,1,3-.12,11.68,11.68,0,0,1,5.66,2,11.7,11.7,0,0,1,2.34,2.12m-1.4,8.76a13,13,0,0,1-1.22,2.32,9.68,9.68,0,0,1-1.81,2,7.44,7.44,0,0,1-2.38,1.37,6.17,6.17,0,0,1-5.11-.46,8.73,8.73,0,0,1-3.85-4.58,6.69,6.69,0,0,1-.34-2.66,6.09,6.09,0,0,1,.77-2.47,7.15,7.15,0,0,1,1.75-2.11,9.58,9.58,0,0,1,1.09-.81,8.23,8.23,0,0,1,1.12-.63,8.14,8.14,0,0,1,1.19-.46,12.71,12.71,0,0,1,1.32-.37l2,2.38a12.83,12.83,0,0,0-1.56.17,7.86,7.86,0,0,0-1.23.32,4.5,4.5,0,0,0-1,.49,6.41,6.41,0,0,0-.93.67,4.49,4.49,0,0,0-1.15,1.39,3.87,3.87,0,0,0-.45,1.58,4.12,4.12,0,0,0,.26,1.63,6.11,6.11,0,0,0,2.36,2.82,4.43,4.43,0,0,0,1.57.53,3.91,3.91,0,0,0,1.62-.17,4.71,4.71,0,0,0,1.57-.89,10.5,10.5,0,0,0,.83-.79,5.71,5.71,0,0,0,.65-.93,10.13,10.13,0,0,0,.54-1.14,12.24,12.24,0,0,0,.44-1.49l2,2.33m-14.46,4.55a8.86,8.86,0,0,0,2.78,2.22,9,9,0,0,0,3.29.94,9.15,9.15,0,0,0,3.39-.37,8.68,8.68,0,0,0,3.11-1.69,8.8,8.8,0,0,0,2.22-2.78,9.15,9.15,0,0,0,1-3.29,8.95,8.95,0,0,0-4.83-8.76,9,9,0,0,0-6.73-.57,9,9,0,0,0-5.33,4.47,8.94,8.94,0,0,0-.57,6.71,8.76,8.76,0,0,0,1.7,3.12"></path><path class="watermark-path" d="M147,349c-.48.12-1.09.31-1.82.57a24.37,24.37,0,0,0-2.4,1A28.35,28.35,0,0,0,140,352a20.72,20.72,0,0,0-2.71,1.94c-.7.59-1.28,1.11-1.74,1.57a15.07,15.07,0,0,0-1.1,1.22,4.09,4.09,0,0,0-.59.92,2.32,2.32,0,0,0-.22.64,1.16,1.16,0,0,0,0,.47,1.83,1.83,0,0,0,.18.29,1.15,1.15,0,0,0,1,.37,5.54,5.54,0,0,0,1.51-.38q.87-.35,1.95-.9l2.26-1.18q1.2-.65,2.49-1.29c.87-.44,1.73-.83,2.59-1.17a18.94,18.94,0,0,1,2.6-.81,9.27,9.27,0,0,1,2.46-.29,6.25,6.25,0,0,1,2.24.49,5.12,5.12,0,0,1,1.89,1.47,6.35,6.35,0,0,1,1.41,2.61,6,6,0,0,1,.09,2.6,8.3,8.3,0,0,1-.9,2.52,17.79,17.79,0,0,1-1.62,2.37,23.92,23.92,0,0,1-2,2.15c-.72.67-1.41,1.29-2.09,1.87a33.79,33.79,0,0,1-5.33,3.7,32.29,32.29,0,0,1-4.91,2.28l-3.61-4.3a21.38,21.38,0,0,0,5.39-1.87,27.2,27.2,0,0,0,5.4-3.56,21.59,21.59,0,0,0,2.38-2.27,8.67,8.67,0,0,0,1.18-1.7,2.32,2.32,0,0,0,.27-1.19,1.34,1.34,0,0,0-.28-.74,1.21,1.21,0,0,0-1-.42,4.32,4.32,0,0,0-1.55.34,15.77,15.77,0,0,0-2,.88c-.72.37-1.48.77-2.27,1.21l-2.45,1.3c-.85.45-1.7.85-2.56,1.21a22.37,22.37,0,0,1-2.54.86,10,10,0,0,1-2.43.32,5.76,5.76,0,0,1-2.2-.45,5,5,0,0,1-1.89-1.45,6.12,6.12,0,0,1-1.31-2.41,6,6,0,0,1-.1-2.41,8.28,8.28,0,0,1,.81-2.38,14.06,14.06,0,0,1,1.49-2.24,22.37,22.37,0,0,1,1.85-2.05q1-1,2-1.77c.7-.59,1.44-1.15,2.23-1.7s1.62-1.06,2.44-1.53,1.63-.91,2.43-1.3,1.58-.75,2.3-1L147,349"></path><path class="watermark-path" d="M186.76,337.57l-10.6-12.63,3.92,18.24-4.66,3.91-17.27-7,10.6,12.63-4.86,4.07-15.09-18,6.59-5.54,18.69,7.52-4.15-19.71,6.57-5.52,15.09,18-4.83,4.05"></path><path class="watermark-path" d="M208.84,313.24l-10,8.42,1.16,4.82L194.56,331l-5.68-25.89,5.42-4.55,24.51,10.09-5.42,4.55-4.55-2m-11.23,3.45,6.57-5.52-8.83-3.87,2.26,9.39"></path><path class="watermark-path" d="M227.49,281.38c-.48.12-1.09.31-1.82.57a24.37,24.37,0,0,0-2.4,1,26.11,26.11,0,0,0-2.7,1.47,20.72,20.72,0,0,0-2.71,1.94c-.7.59-1.28,1.11-1.74,1.57a13.39,13.39,0,0,0-1.1,1.22,4.29,4.29,0,0,0-.59.91,2.48,2.48,0,0,0-.22.65,1.16,1.16,0,0,0,0,.47,1.83,1.83,0,0,0,.18.29,1.15,1.15,0,0,0,1,.37,5.54,5.54,0,0,0,1.51-.38q.87-.34,2-.9l2.26-1.18q1.2-.64,2.49-1.29c.87-.44,1.73-.83,2.59-1.17a18.94,18.94,0,0,1,2.6-.81,9.27,9.27,0,0,1,2.46-.29,6.08,6.08,0,0,1,2.24.49,5.09,5.09,0,0,1,1.89,1.46,6.47,6.47,0,0,1,1.41,2.61,6.07,6.07,0,0,1,.09,2.61,8.3,8.3,0,0,1-.9,2.52,16.32,16.32,0,0,1-1.63,2.36,21.41,21.41,0,0,1-2,2.16c-.72.67-1.41,1.29-2.1,1.86a33.36,33.36,0,0,1-5.32,3.71,31.92,31.92,0,0,1-4.92,2.28l-3.6-4.3a21.38,21.38,0,0,0,5.39-1.87,27.2,27.2,0,0,0,5.4-3.56,21.59,21.59,0,0,0,2.38-2.27,8.67,8.67,0,0,0,1.18-1.7A2.32,2.32,0,0,0,231,293a1.34,1.34,0,0,0-.28-.74,1.21,1.21,0,0,0-1-.42,4.32,4.32,0,0,0-1.55.34,16.54,16.54,0,0,0-2,.88c-.71.37-1.47.77-2.26,1.21l-2.46,1.3c-.84.44-1.7.85-2.55,1.21a24.53,24.53,0,0,1-2.54.86A10,10,0,0,1,214,298a5.76,5.76,0,0,1-2.2-.45,5,5,0,0,1-1.89-1.45,6.12,6.12,0,0,1-1.31-2.41,5.78,5.78,0,0,1-.1-2.41,8,8,0,0,1,.81-2.38,14.61,14.61,0,0,1,1.49-2.25,22.26,22.26,0,0,1,1.85-2q1-1,2-1.77c.7-.59,1.44-1.15,2.23-1.7s1.62-1.06,2.44-1.53,1.63-.91,2.43-1.31,1.58-.74,2.3-1l3.5,4.16"></path><path class="watermark-path" d="M261.64,274.74l-6.29-7.5L243,277.61l6.3,7.5-4.86,4.07-15.09-18,4.85-4.08,5.49,6.55L252,263.3l-5.49-6.55,4.86-4.07,15.09,18-4.86,4.08"></path><path class="watermark-path" d="M272.18,265.9l-15.09-18,4.86-4.08,15.09,18-4.86,4.08"></path><path class="watermark-path" d="M299.65,242.85l-22.51-2.18L287.51,253l-4.85,4.08-15.1-18,5.28-4.43,22.56,2.22L285,224.5l4.83-4.06,15.09,18-5.26,4.42"></path><path class="watermark-path" d="M306.68,205.52a31.88,31.88,0,0,1,5.29-3.66,34.48,34.48,0,0,1,5.14-2.35l3.69,4.39a20.77,20.77,0,0,0-2.37.61,20.47,20.47,0,0,0-2.61,1,25.12,25.12,0,0,0-2.76,1.49,23.9,23.9,0,0,0-2.8,2,20.42,20.42,0,0,0-2.8,2.77,12.77,12.77,0,0,0-1.64,2.52,7,7,0,0,0-.68,2.24,6,6,0,0,0,.66,3.64,8.16,8.16,0,0,0,.94,1.38,9.12,9.12,0,0,0,1.08,1.07,6.39,6.39,0,0,0,1.47.91,6.73,6.73,0,0,0,1.88.48,6.54,6.54,0,0,0,2.28-.18,11.67,11.67,0,0,0,2.74-1.07,19.38,19.38,0,0,0,3.18-2.22c.57-.48,1.06-.92,1.46-1.31a14.57,14.57,0,0,0,1-1.13,11.46,11.46,0,0,0,.81-1.05l.74-1.09-1.82-2.17-5.45,4.57-3.31-3.94,10.31-8.65,7.71,9.19a29,29,0,0,1-1.67,2.43q-1,1.26-2.1,2.52c-.74.84-1.5,1.65-2.3,2.44s-1.58,1.5-2.33,2.14a31,31,0,0,1-3.59,2.61,22.55,22.55,0,0,1-3.64,1.83,15.64,15.64,0,0,1-3.63.89,10.72,10.72,0,0,1-3.49-.15,10.45,10.45,0,0,1-3.28-1.33,12.54,12.54,0,0,1-3-2.67,12,12,0,0,1-2.08-3.44,10.45,10.45,0,0,1-.71-3.5,11.14,11.14,0,0,1,.51-3.51,15.72,15.72,0,0,1,1.56-3.43,21.62,21.62,0,0,1,2.42-3.28,30.3,30.3,0,0,1,3.15-3"></path><path class="watermark-path" d="M336.91,211.59l-15.1-18,4.86-4.08,11.79,14,13.13-11,3.31,3.94-18,15.1"></path><path class="watermark-path" d="M374.54,164.71a12.28,12.28,0,0,1,2.59,4.81,10.44,10.44,0,0,1,0,5,14.62,14.62,0,0,1-2.33,5,25.55,25.55,0,0,1-4.56,4.85,26.07,26.07,0,0,1-5.6,3.67,14.79,14.79,0,0,1-5.38,1.43,10.43,10.43,0,0,1-4.94-.89,13.24,13.24,0,0,1-6.87-8.18,10.48,10.48,0,0,1,0-5,14.51,14.51,0,0,1,2.36-5,25.23,25.23,0,0,1,4.57-4.89,25,25,0,0,1,5.59-3.64,14.45,14.45,0,0,1,5.35-1.43,10.31,10.31,0,0,1,4.93.92,12.22,12.22,0,0,1,4.28,3.38m-4.91,4.11a8.36,8.36,0,0,0-2-1.72,5.5,5.5,0,0,0-2.65-.85,7.72,7.72,0,0,0-3.32.57,14.49,14.49,0,0,0-4,2.52,16.72,16.72,0,0,0-2.38,2.4,10.15,10.15,0,0,0-1.39,2.24,6.71,6.71,0,0,0-.56,2.1,5.69,5.69,0,0,0,.1,1.9,6.21,6.21,0,0,0,.61,1.69,9.85,9.85,0,0,0,1,1.44,10.48,10.48,0,0,0,1.26,1.23,6.67,6.67,0,0,0,1.57.92,6.1,6.1,0,0,0,1.85.41,6.8,6.8,0,0,0,2.15-.2,11.06,11.06,0,0,0,2.45-1,17.67,17.67,0,0,0,2.77-1.94,14.39,14.39,0,0,0,3.18-3.52,7.74,7.74,0,0,0,1.14-3.17,5.54,5.54,0,0,0-.37-2.74,8.52,8.52,0,0,0-1.36-2.3"></path><path class="watermark-path" d="M382.66,141.76A32.3,32.3,0,0,1,388,138.1a34.12,34.12,0,0,1,5.15-2.35l3.69,4.4a19.62,19.62,0,0,0-2.37.6,22.08,22.08,0,0,0-2.61,1,26,26,0,0,0-2.77,1.49,23.9,23.9,0,0,0-2.8,2,21,21,0,0,0-2.8,2.78,13.19,13.19,0,0,0-1.64,2.51,7.29,7.29,0,0,0-.68,2.24,6.36,6.36,0,0,0,.06,2,5.8,5.8,0,0,0,.61,1.68,8.12,8.12,0,0,0,.93,1.38,9.16,9.16,0,0,0,1.08,1.08,6.56,6.56,0,0,0,1.48.9,6,6,0,0,0,1.87.48,6.76,6.76,0,0,0,2.28-.17,12,12,0,0,0,2.74-1.08,18.57,18.57,0,0,0,3.18-2.22c.58-.48,1.06-.92,1.46-1.31s.75-.77,1.05-1.12.57-.72.81-1.06l.73-1.09-1.82-2.17-5.45,4.57-3.3-3.94,10.3-8.65,7.71,9.19a29,29,0,0,1-1.67,2.43q-1,1.26-2.1,2.52c-.73.84-1.5,1.66-2.3,2.44s-1.57,1.5-2.33,2.14a31,31,0,0,1-3.59,2.61,22.15,22.15,0,0,1-3.64,1.83,15.56,15.56,0,0,1-3.62.89,11,11,0,0,1-3.49-.14,10.84,10.84,0,0,1-3.28-1.33,12.82,12.82,0,0,1-3-2.68,12.12,12.12,0,0,1-2.08-3.43A10.71,10.71,0,0,1,375,155a11.18,11.18,0,0,1,.51-3.51,15.51,15.51,0,0,1,1.57-3.43,21.44,21.44,0,0,1,2.42-3.28,30.19,30.19,0,0,1,3.14-3"></path><path class="watermark-path" d="M428.63,119.31a12.26,12.26,0,0,1,2.59,4.82,10.44,10.44,0,0,1,0,5,14.53,14.53,0,0,1-2.34,5,25.29,25.29,0,0,1-4.56,4.86,26,26,0,0,1-5.59,3.67,14.84,14.84,0,0,1-5.38,1.43,10.61,10.61,0,0,1-4.95-.89,12.15,12.15,0,0,1-4.3-3.37,12,12,0,0,1-2.56-4.81,10.48,10.48,0,0,1,0-5,14.39,14.39,0,0,1,2.35-5,27.89,27.89,0,0,1,10.16-8.53,14.49,14.49,0,0,1,5.36-1.43,10.27,10.27,0,0,1,4.92.92,12.21,12.21,0,0,1,4.28,3.37m-4.91,4.12a8.17,8.17,0,0,0-2-1.72,5.58,5.58,0,0,0-2.65-.86,7.86,7.86,0,0,0-3.31.58,14.49,14.49,0,0,0-4,2.52,16.21,16.21,0,0,0-2.38,2.4,9.85,9.85,0,0,0-1.4,2.24,7,7,0,0,0-.56,2.1,6,6,0,0,0,.1,1.9,6.23,6.23,0,0,0,.62,1.69,8.49,8.49,0,0,0,1,1.44,9.18,9.18,0,0,0,1.26,1.23,6.67,6.67,0,0,0,1.57.92,6,6,0,0,0,1.84.41,6.86,6.86,0,0,0,2.16-.2,11.26,11.26,0,0,0,2.45-1,17.62,17.62,0,0,0,2.76-1.94,14.67,14.67,0,0,0,3.19-3.52,7.71,7.71,0,0,0,1.13-3.17,5.53,5.53,0,0,0-.36-2.74,8.55,8.55,0,0,0-1.37-2.3"></path></g><rect data-element-id="element-id-57639" stroke-width="2" fill="transparent" class="invisible-element-box grouping-element" x="203" y="159" width="145" height="124" data-element-name="isPrimaryText"></rect><rect data-element-id="element-id-49404" stroke-width="2" fill="transparent" class="invisible-element-box individual-element" x="280" y="159" width="67" height="124"></rect><rect data-element-id="element-id-10040" stroke-width="2" fill="transparent" class="invisible-element-box grouping-element" x="203" y="159" width="67" height="122" data-element-name="isIcon"></rect><rect data-element-id="element-id-6617" stroke-width="2" fill="transparent" class="invisible-element-box individual-element" x="203" y="159" width="67" height="122"></rect><rect data-element-id="element-id-39752" stroke-width="2" fill="transparent" class="invisible-element-box grouping-element" x="203" y="299" width="136" height="11" data-element-name="isSecondaryText"></rect><rect data-element-id="element-id-55181" stroke-width="2" fill="transparent" class="invisible-element-box individual-element" x="216" y="233" width="40" height="27"></rect><rect data-element-id="element-id-21428" stroke-width="2" fill="transparent" class="invisible-element-box individual-element" x="214" y="299" width="12" height="11"></rect><rect data-element-id="element-id-27622" stroke-width="2" fill="transparent" class="invisible-element-box individual-element" x="255" y="299" width="12" height="11"></rect><rect data-element-id="element-id-76490" stroke-width="2" fill="transparent" class="invisible-element-box individual-element" x="270" y="299" width="11" height="11"></rect><rect data-element-id="element-id-97926" stroke-width="2" fill="transparent" class="invisible-element-box individual-element" x="315" y="299" width="11" height="11"></rect><rect data-element-id="element-id-88801" stroke-width="2" fill="transparent" class="invisible-element-box individual-element" x="230" y="299" width="9" height="11"></rect><rect data-element-id="element-id-49488" stroke-width="2" fill="transparent" class="invisible-element-box individual-element" x="329" y="299" width="9" height="11"></rect><rect data-element-id="element-id-76020" stroke-width="2" fill="transparent" class="invisible-element-box individual-element" x="302" y="299" width="8" height="11"></rect><rect data-element-id="element-id-96703" stroke-width="2" fill="transparent" class="invisible-element-box individual-element" x="203" y="299" width="7" height="11"></rect><rect data-element-id="element-id-57639" stroke-width="2" fill="transparent" class="invisible-element-box individual-element" x="245" y="299" width="6" height="11"></rect><rect data-element-id="element-id-99704" stroke-width="2" fill="transparent" class="invisible-element-box individual-element" x="293" y="299" width="6" height="11"></rect></svg>
